bicep_curl
version=1
nRows=217
nColumns=3
inDegrees=yes

# SIMM Motion File Header:
name bicep_curl
datacolumns 3
datarows 217
otherdata 1
range 0.0000 0.2160
endheader
time	/jointset/r_shoulder/r_shoulder_elev/value	/jointset/r_elbow/r_elbow_flex/value
0.0000	0.0000	123.7600
0.0010	0.0000	123.6291
0.0020	0.0000	123.4984
0.0030	0.0000	123.3680
0.0040	0.0000	123.2380
0.0050	0.0000	123.1082
0.0060	0.0000	122.9787
0.0070	0.0000	122.8495
0.0080	0.0000	122.7206
0.0090	0.0000	122.5920
0.0100	0.0000	122.4637
0.0110	0.0000	122.3357
0.0120	0.0000	122.2079
0.0130	0.0000	122.0805
0.0140	0.0000	121.9533
0.0150	0.0000	121.8265
0.0160	0.0000	121.6999
0.0170	0.0000	121.5736
0.0180	0.0000	121.4476
0.0190	0.0000	121.3219
0.0200	0.0000	121.1965
0.0210	0.0000	121.0714
0.0220	0.0000	120.9466
0.0230	0.0000	120.8221
0.0240	0.0000	120.6978
0.0250	0.0000	120.5739
0.0260	0.0000	120.4502
0.0270	0.0000	120.3269
0.0280	0.0000	120.2038
0.0290	0.0000	120.0810
0.0300	0.0000	119.9585
0.0310	0.0000	119.8363
0.0320	0.0000	119.7144
0.0330	0.0000	119.5928
0.0340	0.0000	119.4715
0.0350	0.0000	119.3505
0.0360	0.0000	119.2297
0.0370	0.0000	119.1093
0.0380	0.0000	118.9891
0.0390	0.0000	118.8692
0.0400	0.0000	118.7497
0.0410	0.0000	118.6304
0.0420	0.0000	118.5114
0.0430	0.0000	118.3927
0.0440	0.0000	118.2743
0.0450	0.0000	118.1562
0.0460	0.0000	118.0384
0.0470	0.0000	117.9208
0.0480	0.0000	117.8036
0.0490	0.0000	117.6867
0.0500	0.0000	117.5700
0.0510	0.0000	117.4536
0.0520	0.0000	117.3376
0.0530	0.0000	117.2218
0.0540	0.0000	117.1063
0.0550	0.0000	116.9911
0.0560	0.0000	116.8762
0.0570	0.0000	116.7616
0.0580	0.0000	116.6472
0.0590	0.0000	116.5332
0.0600	0.0000	116.4195
0.0610	0.0000	116.3060
0.0620	0.0000	116.1929
0.0630	0.0000	116.0800
0.0640	0.0000	115.9674
0.0650	0.0000	115.8552
0.0660	0.0000	115.7432
0.0670	0.0000	115.6315
0.0680	0.0000	115.5201
0.0690	0.0000	115.4089
0.0700	0.0000	115.2981
0.0710	0.0000	115.1876
0.0720	0.0000	115.0773
0.0730	0.0000	114.9674
0.0740	0.0000	114.8577
0.0750	0.0000	114.7484
0.0760	0.0000	114.6393
0.0770	0.0000	114.5305
0.0780	0.0000	114.4220
0.0790	0.0000	114.3138
0.0800	0.0000	114.2059
0.0810	0.0000	114.0983
0.0820	0.0000	113.9910
0.0830	0.0000	113.8839
0.0840	0.0000	113.7772
0.0850	0.0000	113.6708
0.0860	0.0000	113.5646
0.0870	0.0000	113.4587
0.0880	0.0000	113.3532
0.0890	0.0000	113.2479
0.0900	0.0000	113.1429
0.0910	0.0000	113.0382
0.0920	0.0000	112.9338
0.0930	0.0000	112.8296
0.0940	0.0000	112.7258
0.0950	0.0000	112.6223
0.0960	0.0000	112.5190
0.0970	0.0000	112.4161
0.0980	0.0000	112.3134
0.0990	0.0000	112.2111
0.1000	0.0000	112.1090
0.1010	0.0000	112.0072
0.1020	0.0000	111.9057
0.1030	0.0000	111.8045
0.1040	0.0000	111.7036
0.1050	0.0000	111.6030
0.1060	0.0000	111.5027
0.1070	0.0000	111.4026
0.1080	0.0000	111.3029
0.1090	0.0000	111.2034
0.1100	0.0000	111.1043
0.1110	0.0000	111.0054
0.1120	0.0000	110.9068
0.1130	0.0000	110.8085
0.1140	0.0000	110.7106
0.1150	0.0000	110.6129
0.1160	0.0000	110.5154
0.1170	0.0000	110.4183
0.1180	0.0000	110.3215
0.1190	0.0000	110.2250
0.1200	0.0000	110.1287
0.1210	0.0000	110.0328
0.1220	0.0000	109.9371
0.1230	0.0000	109.8417
0.1240	0.0000	109.7467
0.1250	0.0000	109.6519
0.1260	0.0000	109.5574
0.1270	0.0000	109.4632
0.1280	0.0000	109.3693
0.1290	0.0000	109.2756
0.1300	0.0000	109.1823
0.1310	0.0000	109.0893
0.1320	0.0000	108.9965
0.1330	0.0000	108.9041
0.1340	0.0000	108.8119
0.1350	0.0000	108.7201
0.1360	0.0000	108.6285
0.1370	0.0000	108.5372
0.1380	0.0000	108.4462
0.1390	0.0000	108.3555
0.1400	0.0000	108.2651
0.1410	0.0000	108.1750
0.1420	0.0000	108.0851
0.1430	0.0000	107.9956
0.1440	0.0000	107.9063
0.1450	0.0000	107.8174
0.1460	0.0000	107.7287
0.1470	0.0000	107.6404
0.1480	0.0000	107.5523
0.1490	0.0000	107.4645
0.1500	0.0000	107.3770
0.1510	0.0000	107.2898
0.1520	0.0000	107.2029
0.1530	0.0000	107.1163
0.1540	0.0000	107.0299
0.1550	0.0000	106.9439
0.1560	0.0000	106.8581
0.1570	0.0000	106.7727
0.1580	0.0000	106.6875
0.1590	0.0000	106.6027
0.1600	0.0000	106.5181
0.1610	0.0000	106.4338
0.1620	0.0000	106.3498
0.1630	0.0000	106.2661
0.1640	0.0000	106.1827
0.1650	0.0000	106.0996
0.1660	0.0000	106.0167
0.1670	0.0000	105.9342
0.1680	0.0000	105.8519
0.1690	0.0000	105.7700
0.1700	0.0000	105.6883
0.1710	0.0000	105.6069
0.1720	0.0000	105.5259
0.1730	0.0000	105.4451
0.1740	0.0000	105.3646
0.1750	0.0000	105.2844
0.1760	0.0000	105.2045
0.1770	0.0000	105.1248
0.1780	0.0000	105.0455
0.1790	0.0000	104.9665
0.1800	0.0000	104.8877
0.1810	0.0000	104.8093
0.1820	0.0000	104.7311
0.1830	0.0000	104.6532
0.1840	0.0000	104.5756
0.1850	0.0000	104.4984
0.1860	0.0000	104.4214
0.1870	0.0000	104.3446
0.1880	0.0000	104.2682
0.1890	0.0000	104.1921
0.1900	0.0000	104.1163
0.1910	0.0000	104.0407
0.1920	0.0000	103.9655
0.1930	0.0000	103.8905
0.1940	0.0000	103.8159
0.1950	0.0000	103.7415
0.1960	0.0000	103.6674
0.1970	0.0000	103.5936
0.1980	0.0000	103.5201
0.1990	0.0000	103.4469
0.2000	0.0000	103.3740
0.2010	0.0000	103.3014
0.2020	0.0000	103.2290
0.2030	0.0000	103.1570
0.2040	0.0000	103.0852
0.2050	0.0000	103.0138
0.2060	0.0000	102.9426
0.2070	0.0000	102.8718
0.2080	0.0000	102.8012
0.2090	0.0000	102.7309
0.2100	0.0000	102.6609
0.2110	0.0000	102.5912
0.2120	0.0000	102.5218
0.2130	0.0000	102.4526
0.2140	0.0000	102.3838
0.2150	0.0000	102.3153
0.2160	0.0000	102.2470
